<svg width="200" height="95" viewBox="0 0 200 95" fill="none" xmlns="http://www.w3.org/2000/svg">
    <path d="M47.2017 39.2506L9.38918 39.2859V63.8489L51.3124 63.8579V72.341H0.492477V0.0937958H49.8018V8.60609H9.38918V30.8085L47.2365 30.8961L47.2017 39.2506Z" fill="#F39551"/>
    <path d="M76.8045 0L96.335 61.8102L116.211 0H128.228L128.368 72.4348H121.868H119.549L119.654 12.0697L99.9421 72.4348H91.8369L72.0663 11.1217L72.2535 72.4348H63.0662V0H76.8045Z" fill="#94BC65"/>
    <path d="M181.049 50.5829H152.667L145.209 72.3938H135.602L161.934 0.0404358H171.491L199.32 72.3938H189.164L181.049 50.5829ZM155.223 42.7547H178.413L167.225 11.8176L155.223 42.7547Z" fill="#518CC9"/>
    <path d="M6.09979 86.7809H1.42291V90.6018H6.85594V91.7644H0V80.9836H6.78173V82.1462H1.42291V85.6189H6.09979V86.7809Z" fill="#94BC65"/>
    <path d="M9.90191 91.7644H8.53072V80.3911H9.90191V91.7644Z" fill="#94BC65"/>
    <path d="M15.4237 91.9127C14.3365 91.9127 13.4521 91.556 12.7702 90.8427C12.0883 90.1294 11.7476 89.1758 11.7476 87.9811V87.7295C11.7476 86.9348 11.8999 86.2254 12.2035 85.6003C12.5077 84.9763 12.9321 84.4877 13.4786 84.1344C14.0245 83.7817 14.6164 83.6054 15.254 83.6054C16.2963 83.6054 17.107 83.9485 17.6849 84.6349C18.2628 85.3212 18.5518 86.3035 18.5518 87.5818V88.1519H13.1188C13.1384 88.9415 13.3695 89.5796 13.8119 90.066C14.2538 90.5524 14.816 90.795 15.498 90.795C15.982 90.795 16.3924 90.6961 16.728 90.499C17.0637 90.3019 17.3583 90.0401 17.6101 89.7144L18.4478 90.3659C17.776 91.3965 16.7679 91.9127 15.4237 91.9127ZM15.2534 84.7303C14.7002 84.7303 14.2353 84.9314 13.8597 85.3335C13.4842 85.7362 13.252 86.3001 13.1632 87.0258H17.1806V86.9219C17.1412 86.226 16.9535 85.6868 16.6173 85.3038C16.2811 84.9213 15.8263 84.7303 15.2534 84.7303Z" fill="#94BC65"/>
    <path d="M22.3758 88.0547L21.5162 88.9505V91.7644H20.1451V80.3911H21.5162V87.2701L22.2499 86.3889L24.7477 83.7531H26.4152L23.295 87.0999L26.7784 91.7649H25.1705L22.3758 88.0547Z" fill="#94BC65"/>
    <path d="M29.6916 81.8126V83.7525H31.1888V84.8112H29.6916V89.7857C29.6916 90.107 29.7585 90.3479 29.8918 90.5085C30.025 90.6692 30.2527 90.7495 30.5737 90.7495C30.7317 90.7495 30.9493 90.7197 31.2259 90.6608V91.7649C30.8649 91.8632 30.5141 91.9121 30.1734 91.9121C29.5606 91.9121 29.0985 91.7267 28.7876 91.3566C28.4767 90.9865 28.3204 90.4608 28.3204 89.7795V84.8112H26.8604V83.7525H28.3204V81.8126H29.6916Z" fill="#94BC65"/>
    <path d="M36.6656 84.982C36.4582 84.9471 36.2333 84.9303 35.991 84.9303C35.0915 84.9303 34.4815 85.3128 34.1605 86.0777V91.7644H32.7893V83.7525H34.1234L34.1459 84.6781C34.5956 83.9626 35.2332 83.6042 36.0579 83.6042C36.3249 83.6042 36.5273 83.6391 36.6656 83.7082V84.982Z" fill="#94BC65"/>
    <path d="M37.4145 87.6846C37.4145 86.9 37.5685 86.194 37.8777 85.5666C38.1869 84.9393 38.6164 84.4557 39.1674 84.1153C39.7183 83.775 40.3474 83.6042 41.0535 83.6042C42.1453 83.6042 43.0291 83.9817 43.7032 84.7371C44.3778 85.4925 44.7151 86.4967 44.7151 87.7509V87.8469C44.7151 88.627 44.5656 89.3268 44.2665 89.9463C43.9674 90.5658 43.5401 91.0483 42.9847 91.3937C42.4287 91.7391 41.79 91.9121 41.0687 91.9121C39.9814 91.9121 39.101 91.5347 38.4264 90.7793C37.7523 90.0238 37.415 89.0241 37.415 87.7806V87.6846H37.4145ZM38.793 87.8475C38.793 88.736 38.9993 89.4493 39.4119 89.9873C39.824 90.5254 40.3767 90.7944 41.0682 90.7944C41.7647 90.7944 42.3185 90.522 42.7283 89.9761C43.1382 89.4302 43.3434 88.6663 43.3434 87.684C43.3434 86.8056 43.1342 86.0935 42.7171 85.5481C42.2994 85.0027 41.745 84.7298 41.053 84.7298C40.3761 84.7298 39.8302 84.9988 39.4148 85.5369C38.9993 86.0749 38.793 86.8455 38.793 87.8475Z" fill="#94BC65"/>
    <path d="M47.7313 83.7525L47.7757 84.7596C48.3885 83.9895 49.189 83.6042 50.1768 83.6042C51.8718 83.6042 52.7264 84.5596 52.7415 86.4698V91.7638H51.3703V86.4625C51.3653 85.8851 51.2332 85.4577 50.974 85.1813C50.7143 84.905 50.3106 84.7668 49.7619 84.7668C49.3172 84.7668 48.9271 84.8854 48.5909 85.1224C48.2547 85.3594 47.9933 85.6705 47.8055 86.0553V91.7644H46.4343V83.7525H47.7313Z" fill="#94BC65"/>
    <path d="M54.8172 81.6278C54.8172 81.4054 54.8852 81.2184 55.0212 81.065C55.1567 80.9123 55.3586 80.8353 55.625 80.8353C55.8915 80.8353 56.0945 80.9117 56.2328 81.065C56.3711 81.2184 56.4402 81.4054 56.4402 81.6278C56.4402 81.8502 56.3711 82.035 56.2328 82.1833C56.0945 82.3316 55.8921 82.4057 55.625 82.4057C55.358 82.4057 55.1567 82.3316 55.0212 82.1833C54.8846 82.035 54.8172 81.8497 54.8172 81.6278ZM56.2997 91.7644H54.9285V83.7525H56.2997V91.7644Z" fill="#94BC65"/>
    <path d="M59.7903 83.7525L59.8347 84.7596C60.4475 83.9895 61.2481 83.6042 62.2358 83.6042C63.9309 83.6042 64.7854 84.5596 64.8006 86.4698V91.7638H63.4294V86.4625C63.4243 85.8851 63.2922 85.4577 63.0325 85.1813C62.7733 84.905 62.3691 84.7668 61.8209 84.7668C61.3763 84.7668 60.9861 84.8854 60.6499 85.1224C60.3137 85.3594 60.0523 85.6705 59.8645 86.0553V91.7644H58.4933V83.7525H59.7903Z" fill="#94BC65"/>
    <path d="M70.1965 91.9127C69.1086 91.9127 68.2243 91.556 67.5424 90.8427C66.8604 90.1294 66.5203 89.1758 66.5203 87.9811V87.7295C66.5203 86.9348 66.6721 86.2254 66.9762 85.6003C67.2798 84.9763 67.7048 84.4877 68.2513 84.1344C68.7972 83.7817 69.3886 83.6054 70.0261 83.6054C71.0684 83.6054 71.8791 83.9485 72.457 84.6349C73.035 85.3212 73.324 86.3035 73.324 87.5818V88.1519H67.8915C67.9112 88.9415 68.1422 89.5796 68.5841 90.066C69.0266 90.5524 69.5882 90.795 70.2701 90.795C70.7542 90.795 71.1646 90.6961 71.5008 90.499C71.8364 90.3013 72.1304 90.0401 72.3823 89.7144L73.2199 90.3659C72.5476 91.3965 71.5396 91.9127 70.1965 91.9127ZM70.0256 84.7303C69.4724 84.7303 69.0074 84.9314 68.6319 85.3335C68.2564 85.7362 68.0242 86.3001 67.9353 87.0258H71.9528V86.9219C71.9134 86.226 71.7256 85.6868 71.3895 85.3038C71.0533 84.9213 70.599 84.7303 70.0256 84.7303ZM69.2104 81.6424C69.2104 81.42 69.2784 81.233 69.4139 81.0797C69.55 80.9269 69.7518 80.8499 70.0183 80.8499C70.2847 80.8499 70.4871 80.9263 70.6254 81.0797C70.7637 81.233 70.8329 81.42 70.8329 81.6424C70.8329 81.8648 70.7637 82.0496 70.6254 82.1979C70.4871 82.3462 70.2853 82.4203 70.0183 82.4203C69.7512 82.4203 69.55 82.3462 69.4139 82.1979C69.2784 82.0496 69.2104 81.8648 69.2104 81.6424Z" fill="#94BC65"/>
    <path d="M79.9224 83.7525L79.9595 84.641C80.5476 83.9502 81.3408 83.6042 82.3387 83.6042C83.4603 83.6042 84.2237 84.0339 84.6291 84.8927C84.8961 84.5074 85.243 84.1968 85.6703 83.9598C86.0975 83.7228 86.603 83.6042 87.1859 83.6042C88.945 83.6042 89.8395 84.5349 89.8687 86.3956V91.7638H88.4975V86.4771C88.4975 85.9042 88.3666 85.4762 88.1046 85.1926C87.8426 84.9089 87.4029 84.7668 86.7851 84.7668C86.2763 84.7668 85.8535 84.9185 85.5179 85.2223C85.1817 85.5256 84.9866 85.9345 84.9321 86.4478V91.7644H83.5536V86.5147C83.5536 85.3498 82.983 84.7674 81.8417 84.7674C80.9422 84.7674 80.3272 85.1499 79.9961 85.9148V91.7644H78.6249V83.7525H79.9224Z" fill="#94BC65"/>
    <path d="M91.5733 87.6846C91.5733 86.9 91.7273 86.194 92.0365 85.5666C92.3452 84.9398 92.7747 84.4557 93.3262 84.1153C93.8766 83.775 94.5057 83.6042 95.2124 83.6042C96.3042 83.6042 97.1873 83.9817 97.862 84.7371C98.536 85.4925 98.8734 86.4967 98.8734 87.7509V87.8469C98.8734 88.627 98.7238 89.3268 98.4253 89.9463C98.1262 90.5658 97.6989 91.0483 97.1429 91.3937C96.5875 91.7391 95.9483 91.9121 95.227 91.9121C94.1397 91.9121 93.2593 91.5347 92.5847 90.7793C91.91 90.0238 91.5727 89.0241 91.5727 87.7806V87.6846H91.5733ZM92.9518 87.8475C92.9518 88.736 93.1581 89.4493 93.5708 89.9873C93.9834 90.5254 94.5355 90.7944 95.2276 90.7944C95.9241 90.7944 96.4779 90.522 96.8877 89.9761C97.2975 89.4302 97.5027 88.6663 97.5027 87.684C97.5027 86.8056 97.2936 86.0935 96.8765 85.5481C96.4593 85.0027 95.9044 84.7298 95.2129 84.7298C94.5361 84.7298 93.9902 84.9988 93.5747 85.5369C93.1592 86.0749 92.9518 86.8455 92.9518 87.8475Z" fill="#94BC65"/>
    <path d="M102.832 88.0547L101.972 88.9505V91.7644H100.601V80.3911H101.972V87.2701L102.706 86.3889L105.204 83.7531H106.871L103.751 87.0999L107.234 91.7649H105.626L102.832 88.0547Z" fill="#94BC65"/>
    <path d="M110.91 89.7576L112.778 83.7525H114.246L111.022 93.0005C110.523 94.3333 109.73 95 108.643 95L108.383 94.9775L107.872 94.8815V93.7706L108.242 93.8003C108.707 93.8003 109.069 93.7065 109.328 93.5189C109.588 93.3314 109.801 92.9882 109.969 92.4894L110.274 91.6751L107.413 83.7525H108.91L110.91 89.7576Z" fill="#94BC65"/>
    <path d="M116.758 83.7525L116.796 84.641C117.383 83.9502 118.176 83.6042 119.174 83.6042C120.296 83.6042 121.059 84.0339 121.464 84.8927C121.731 84.5074 122.078 84.1968 122.506 83.9598C122.934 83.7228 123.438 83.6042 124.021 83.6042C125.78 83.6042 126.675 84.5349 126.704 86.3956V91.7638H125.334V86.4771C125.334 85.9042 125.203 85.4762 124.941 85.1926C124.679 84.9089 124.239 84.7668 123.621 84.7668C123.112 84.7668 122.69 84.9185 122.353 85.2223C122.017 85.5256 121.823 85.9345 121.768 86.4478V91.7644H120.39V86.5147C120.39 85.3498 119.819 84.7674 118.677 84.7674C117.778 84.7674 117.163 85.1499 116.832 85.9148V91.7644H115.461V83.7525H116.758Z" fill="#94BC65"/>
    <path d="M128.41 87.6846C128.41 86.9 128.564 86.194 128.873 85.5666C129.182 84.9398 129.611 84.4557 130.163 84.1153C130.713 83.775 131.343 83.6042 132.048 83.6042C133.141 83.6042 134.024 83.9817 134.699 84.7371C135.373 85.4925 135.71 86.4967 135.71 87.7509V87.8469C135.71 88.627 135.56 89.3268 135.262 89.9463C134.963 90.5658 134.536 91.0483 133.979 91.3937C133.424 91.7391 132.785 91.9121 132.064 91.9121C130.977 91.9121 130.096 91.5347 129.422 90.7793C128.747 90.0238 128.41 89.0241 128.41 87.7806V87.6846ZM129.788 87.8475C129.788 88.736 129.994 89.4493 130.407 89.9873C130.821 90.5254 131.373 90.7944 132.064 90.7944C132.76 90.7944 133.314 90.522 133.724 89.9761C134.134 89.4308 134.339 88.6663 134.339 87.684C134.339 86.8056 134.131 86.0935 133.713 85.5481C133.295 85.0027 132.741 84.7298 132.049 84.7298C131.373 84.7298 130.826 84.9988 130.411 85.5369C129.996 86.0749 129.788 86.8455 129.788 87.8475Z" fill="#94BC65"/>
    <path d="M142.099 89.6391C142.099 89.269 141.959 88.9814 141.68 88.7764C141.401 88.5714 140.914 88.3951 140.22 88.2468C139.525 88.0985 138.975 87.921 138.567 87.7138C138.159 87.5065 137.858 87.2594 137.663 86.9735C137.468 86.6871 137.371 86.3467 137.371 85.9519C137.371 85.2953 137.648 84.7399 138.204 84.2861C138.76 83.8317 139.47 83.6048 140.335 83.6048C141.244 83.6048 141.981 83.839 142.547 84.308C143.113 84.777 143.396 85.3768 143.396 86.1075H142.018C142.018 85.7323 141.859 85.4088 141.539 85.1375C141.221 84.8662 140.82 84.7303 140.335 84.7303C139.835 84.7303 139.446 84.8387 139.163 85.0561C138.882 85.2734 138.741 85.5571 138.741 85.9075C138.741 86.2383 138.872 86.4877 139.134 86.6556C139.396 86.8236 139.869 86.9836 140.553 87.137C141.237 87.2897 141.792 87.4728 142.217 87.6851C142.642 87.8974 142.957 88.153 143.162 88.4518C143.367 88.7506 143.47 89.1145 143.47 89.5436C143.47 90.2592 143.183 90.8332 142.61 91.2651C142.037 91.697 141.294 91.9127 140.379 91.9127C139.736 91.9127 139.169 91.7992 138.675 91.5723C138.181 91.3454 137.794 91.0281 137.515 90.6209C137.236 90.2137 137.096 89.7733 137.096 89.2993H138.467C138.492 89.7582 138.676 90.1227 139.019 90.3917C139.362 90.6607 139.816 90.795 140.379 90.795C140.898 90.795 141.314 90.6899 141.628 90.4804C141.942 90.271 142.099 89.9896 142.099 89.6391Z" fill="#94BC65"/>
    <path d="M145.264 81.6278C145.264 81.4054 145.332 81.2184 145.467 81.065C145.603 80.9123 145.805 80.8353 146.071 80.8353C146.338 80.8353 146.541 80.9117 146.679 81.065C146.817 81.2178 146.887 81.4054 146.887 81.6278C146.887 81.8502 146.817 82.035 146.679 82.1833C146.541 82.3316 146.338 82.4057 146.071 82.4057C145.804 82.4057 145.603 82.3316 145.467 82.1833C145.332 82.035 145.264 81.8497 145.264 81.6278ZM146.746 91.7644H145.376V83.7525H146.746V91.7644Z" fill="#94BC65"/>
    <path d="M158.355 91.7644C158.276 91.6066 158.212 91.3252 158.162 90.9202C157.525 91.5818 156.764 91.9127 155.879 91.9127C155.089 91.9127 154.44 91.6897 153.933 91.2426C153.427 90.7961 153.174 90.2294 153.174 89.5436C153.174 88.7096 153.491 88.0614 154.126 87.5998C154.76 87.1387 155.654 86.9078 156.805 86.9078H158.139V86.2782C158.139 85.7991 157.996 85.4184 157.71 85.1342C157.423 84.85 157 84.7084 156.442 84.7084C155.953 84.7084 155.542 84.832 155.212 85.0786C154.881 85.3251 154.715 85.6239 154.715 85.9744H153.336C153.336 85.5745 153.479 85.1886 153.763 84.8157C154.047 84.4433 154.432 84.1485 154.919 83.9311C155.406 83.7138 155.941 83.6054 156.524 83.6054C157.448 83.6054 158.172 83.8362 158.695 84.2973C159.219 84.759 159.491 85.3948 159.51 86.2041V89.8913C159.51 90.627 159.604 91.2117 159.792 91.6464V91.7649H158.355V91.7644ZM156.08 90.7203C156.509 90.7203 156.917 90.6091 157.303 90.3872C157.688 90.1654 157.968 89.8761 158.14 89.5212V87.8772H157.065C155.386 87.8772 154.546 88.3687 154.546 89.351C154.546 89.7806 154.689 90.1159 154.976 90.358C155.262 90.6001 155.63 90.7203 156.08 90.7203Z" fill="#94BC65"/>
    <path d="M168.435 87.8475C168.435 89.0668 168.156 90.0491 167.597 90.7944C167.04 91.5397 166.283 91.9127 165.33 91.9127C164.356 91.9127 163.591 91.6043 163.032 90.9871V94.845H161.661V83.7531H162.914L162.981 84.6416C163.539 83.9508 164.315 83.6048 165.308 83.6048C166.272 83.6048 167.034 83.9676 167.595 84.6933C168.155 85.4189 168.436 86.4282 168.436 87.7217V87.8475H168.435ZM167.064 87.6919C167.064 86.7888 166.872 86.0755 166.487 85.552C166.101 85.0286 165.572 84.7674 164.9 84.7674C164.07 84.7674 163.447 85.1353 163.032 85.8705V89.6986C163.443 90.4293 164.07 90.7944 164.916 90.7944C165.572 90.7944 166.095 90.5344 166.483 90.0132C166.87 89.4925 167.064 88.7186 167.064 87.6919Z" fill="#94BC65"/>
    <path d="M171.667 91.7644H170.295V80.3911H171.667V91.7644Z" fill="#94BC65"/>
    <path d="M173.868 81.6278C173.868 81.4054 173.936 81.2184 174.072 81.065C174.207 80.9123 174.409 80.8353 174.675 80.8353C174.942 80.8353 175.145 80.9117 175.283 81.065C175.422 81.2184 175.491 81.4054 175.491 81.6278C175.491 81.8502 175.422 82.035 175.283 82.1833C175.145 82.3316 174.943 82.4057 174.675 82.4057C174.408 82.4057 174.207 82.3316 174.072 82.1833C173.936 82.035 173.868 81.8497 173.868 81.6278ZM175.351 91.7644H173.979V83.7525H175.351V91.7644Z" fill="#94BC65"/>
    <path d="M178.841 83.7525L178.886 84.7596C179.499 83.9895 180.299 83.6042 181.287 83.6042C182.982 83.6042 183.836 84.5596 183.852 86.4698V91.7638H182.48V86.4625C182.476 85.8851 182.344 85.4577 182.084 85.1813C181.825 84.905 181.421 84.7668 180.873 84.7668C180.428 84.7668 180.038 84.8854 179.701 85.1224C179.365 85.3594 179.104 85.6705 178.916 86.0553V91.7644H177.545V83.7525H178.841Z" fill="#94BC65"/>
    <path d="M188.158 88.0547L187.298 88.9505V91.7644H185.927V80.3911H187.298V87.2701L188.032 86.3889L190.53 83.7531H192.197L189.077 87.0999L192.56 91.7649H190.952L188.158 88.0547Z" fill="#94BC65"/>
    <path d="M198.564 91.7644C198.485 91.6066 198.42 91.3252 198.371 90.9202C197.734 91.5818 196.973 91.9127 196.088 91.9127C195.297 91.9127 194.648 91.6897 194.143 91.2426C193.636 90.7961 193.382 90.2294 193.382 89.5436C193.382 88.7096 193.7 88.0614 194.335 87.5998C194.97 87.1387 195.863 86.9078 197.014 86.9078H198.348V86.2782C198.348 85.7991 198.205 85.4184 197.918 85.1342C197.631 84.85 197.209 84.7084 196.65 84.7084C196.162 84.7084 195.751 84.832 195.42 85.0786C195.089 85.3251 194.923 85.6239 194.923 85.9744H193.545C193.545 85.5745 193.687 85.1886 193.971 84.8157C194.256 84.4433 194.641 84.1485 195.127 83.9311C195.614 83.7138 196.149 83.6054 196.732 83.6054C197.656 83.6054 198.38 83.8362 198.903 84.2973C199.427 84.759 199.699 85.3948 199.719 86.2041V89.8913C199.719 90.627 199.812 91.2117 200 91.6464V91.7649H198.564V91.7644ZM196.288 90.7203C196.718 90.7203 197.126 90.6091 197.511 90.3872C197.897 90.1654 198.176 89.8761 198.349 89.5212V87.8772H197.274C195.594 87.8772 194.754 88.3687 194.754 89.351C194.754 89.7806 194.898 90.1159 195.185 90.358C195.472 90.6001 195.839 90.7203 196.288 90.7203Z" fill="#94BC65"/>
</svg>
